# Blender v2.77 (sub 0) OBJ File: ''
# www.blender.org
o Cube_Cube.001
v -11.509060 -8.181091 -5.171783
v -11.509060 -8.155375 -2.118174
v -11.509060 -0.303354 -14.202501
v -11.509060 -0.277637 -11.148891
v -10.772957 -8.181091 -5.171783
v -10.772957 -8.155375 -2.118174
v -10.772957 -0.303354 -14.202501
v -10.772957 -0.277637 -11.148891
v 5.203796 -8.181091 -5.171783
v 5.203796 -8.155375 -2.118174
v 5.203796 -0.303354 -14.202501
v 5.203796 -0.277637 -11.148891
v 5.939899 -8.181091 -5.171783
v 5.939899 -8.155375 -2.118174
v 5.939899 -0.303354 -14.202501
v 5.939899 -0.277637 -11.148891
v -10.683041 -3.464263 -6.142681
v -10.683041 -2.862613 -6.142681
v -10.683041 -3.464263 -10.177994
v -10.683041 -2.862613 -10.177994
v 5.725613 -3.464263 -6.142681
v 5.725613 -2.862613 -6.142681
v 5.725613 -3.464263 -10.177994
v 5.725613 -2.862613 -10.177994
v -10.683041 -6.076746 -3.704258
v -10.683041 -5.475096 -3.704258
v -10.683041 -6.076746 -7.739572
v -10.683041 -5.475096 -7.739572
v 5.725613 -6.076746 -3.704258
v 5.725613 -5.475096 -3.704258
v 5.725613 -6.076746 -7.739572
v 5.725613 -5.475096 -7.739572
v -10.683041 -1.146746 -8.487318
v -10.683041 -0.545095 -8.487318
v -10.683041 -1.146746 -12.522632
v -10.683041 -0.545095 -12.522632
v 5.725613 -1.146746 -8.487318
v 5.725613 -0.545095 -8.487318
v 5.725613 -1.146746 -12.522632
v 5.725613 -0.545095 -12.522632
vt 1.0000 0.0000
vt 0.0000 1.0000
vt 0.0000 0.0000
vt 0.0001 0.3100
vt 0.9999 0.6197
vt 0.0001 0.6197
vt 0.0000 0.0000
vt 1.0000 1.0000
vt 0.0000 1.0000
vt 1.0000 0.0000
vt 0.0000 1.0000
vt 0.0000 0.0000
vt 1.0000 0.0000
vt 0.0000 0.0000
vt 1.0000 0.0000
vt 0.0000 1.0000
vt 1.0000 0.0000
vt 0.0000 1.0000
vt 0.0000 0.0000
vt 0.0001 0.0001
vt 0.9999 0.3098
vt 0.0001 0.3098
vt 0.0000 0.0000
vt 1.0000 1.0000
vt 0.0000 1.0000
vt 1.0000 0.0000
vt 0.0000 1.0000
vt 0.0000 0.0000
vt 1.0000 0.0000
vt 0.0000 0.0000
vt 1.0000 0.0000
vt 0.0000 1.0000
vt 1.0000 0.0000
vt 0.0000 1.0000
vt 0.0000 0.0000
vt 1.0000 0.0000
vt 0.0000 1.0000
vt 0.0000 0.0000
vt 1.0000 0.0000
vt 0.0000 1.0000
vt 0.0000 0.0000
vt 1.0000 0.0000
vt 0.0000 1.0000
vt 0.0000 0.0000
vt 1.0000 0.0000
vt 0.0000 0.0000
vt 0.0000 1.0000
vt 1.0000 0.0000
vt 0.0000 1.0000
vt 0.0000 0.0000
vt 1.0000 0.0000
vt 0.0000 1.0000
vt 0.0000 0.0000
vt 1.0000 0.0000
vt 0.0000 1.0000
vt 0.0000 0.0000
vt 1.0000 0.0000
vt 0.0000 1.0000
vt 0.0000 0.0000
vt 1.0000 0.0000
vt 0.0000 0.0000
vt 0.0000 1.0000
vt 1.0000 0.0000
vt 0.0000 1.0000
vt 0.0000 0.0000
vt 1.0000 0.0000
vt 0.0000 1.0000
vt 0.0000 0.0000
vt 1.0000 0.0000
vt 0.0000 1.0000
vt 0.0000 0.0000
vt 1.0000 0.0000
vt 0.0000 1.0000
vt 0.0000 0.0000
vt 1.0000 0.0000
vt 0.0000 0.0000
vt 0.0000 1.0000
vt 1.0000 1.0000
vt 0.9999 0.3100
vt 1.0000 0.0000
vt 1.0000 1.0000
vt 1.0000 1.0000
vt 1.0000 1.0000
vt 1.0000 1.0000
vt 0.9999 0.0001
vt 1.0000 0.0000
vt 1.0000 1.0000
vt 1.0000 1.0000
vt 1.0000 1.0000
vt 1.0000 1.0000
vt 1.0000 1.0000
vt 1.0000 1.0000
vt 1.0000 1.0000
vt 1.0000 1.0000
vt 1.0000 1.0000
vt 1.0000 1.0000
vt 1.0000 1.0000
vt 1.0000 1.0000
vt 1.0000 1.0000
vt 1.0000 1.0000
vt 1.0000 1.0000
vt 1.0000 1.0000
vt 1.0000 1.0000
vt 1.0000 1.0000
vn -1.0000 -0.0000 0.0000
vn 0.0000 1.0000 -0.0084
vn 1.0000 0.0000 0.0000
vn 0.0000 -1.0000 0.0084
vn 0.0000 -0.7536 -0.6574
vn 0.0000 0.7536 0.6574
vn 0.0000 0.0000 -1.0000
vn 0.0000 0.0000 1.0000
vn 0.0000 -1.0000 0.0000
vn 0.0000 1.0000 0.0000
s off
f 4/1/1 1/2/1 2/3/1
f 8/4/2 3/5/2 4/6/2
f 8/7/3 5/8/3 7/9/3
f 2/10/4 5/11/4 6/12/4
f 3/13/5 5/11/5 1/14/5
f 8/15/6 2/16/6 6/12/6
f 12/17/1 9/18/1 10/19/1
f 16/20/2 11/21/2 12/22/2
f 16/23/3 13/24/3 15/25/3
f 10/26/4 13/27/4 14/28/4
f 11/29/5 13/27/5 9/30/5
f 16/31/6 10/32/6 14/28/6
f 20/33/1 17/34/1 18/35/1
f 24/36/7 19/37/7 20/38/7
f 22/39/3 23/40/3 24/41/3
f 18/42/8 21/43/8 22/44/8
f 19/45/9 21/43/9 17/46/9
f 24/36/10 18/47/10 22/44/10
f 28/48/1 25/49/1 26/50/1
f 32/51/7 27/52/7 28/53/7
f 30/54/3 31/55/3 32/56/3
f 26/57/8 29/58/8 30/59/8
f 27/60/9 29/58/9 25/61/9
f 32/51/10 26/62/10 30/59/10
f 36/63/1 33/64/1 34/65/1
f 40/66/7 35/67/7 36/68/7
f 38/69/3 39/70/3 40/71/3
f 34/72/8 37/73/8 38/74/8
f 35/75/9 37/73/9 33/76/9
f 40/66/10 34/77/10 38/74/10
f 4/1/1 3/78/1 1/2/1
f 8/4/2 7/79/2 3/5/2
f 8/7/3 6/80/3 5/8/3
f 2/10/4 1/81/4 5/11/4
f 3/13/5 7/82/5 5/11/5
f 8/15/6 4/83/6 2/16/6
f 12/17/1 11/84/1 9/18/1
f 16/20/2 15/85/2 11/21/2
f 16/23/3 14/86/3 13/24/3
f 10/26/4 9/87/4 13/27/4
f 11/29/5 15/88/5 13/27/5
f 16/31/6 12/89/6 10/32/6
f 20/33/1 19/90/1 17/34/1
f 24/36/7 23/91/7 19/37/7
f 22/39/3 21/92/3 23/40/3
f 18/42/8 17/93/8 21/43/8
f 19/45/9 23/91/9 21/43/9
f 24/36/10 20/94/10 18/47/10
f 28/48/1 27/95/1 25/49/1
f 32/51/7 31/96/7 27/52/7
f 30/54/3 29/97/3 31/55/3
f 26/57/8 25/98/8 29/58/8
f 27/60/9 31/96/9 29/58/9
f 32/51/10 28/99/10 26/62/10
f 36/63/1 35/100/1 33/64/1
f 40/66/7 39/101/7 35/67/7
f 38/69/3 37/102/3 39/70/3
f 34/72/8 33/103/8 37/73/8
f 35/75/9 39/101/9 37/73/9
f 40/66/10 36/104/10 34/77/10
